<svg width="106" height="45" viewBox="0 0 106 45" fill="none" xmlns="http://www.w3.org/2000/svg">
<rect width="106" height="45" fill="#309ED8"/>
<path d="M34.26 16.78V19.22H37.96C39.52 19.22 40.7267 19.6133 41.58 20.4C42.4467 21.1733 42.88 22.2267 42.88 23.56C42.88 24.9733 42.42 26.0667 41.5 26.84C40.58 27.6133 39.3 28 37.66 28H31.18V14H41.92V16.78H34.26ZM37.64 21.78H34.26V25.22H37.66C39.0867 25.22 39.8 24.6267 39.8 23.44C39.8 22.3333 39.08 21.78 37.64 21.78ZM48.2983 22.22V19.66H54.0183C53.7649 18.7267 53.2783 17.9733 52.5583 17.4C51.8383 16.8133 51.0049 16.52 50.0583 16.52C48.7249 16.52 47.5049 17.0133 46.3983 18L44.6983 15.88C46.2049 14.4667 47.9849 13.76 50.0383 13.76C52.1583 13.76 53.9049 14.46 55.2783 15.86C56.6516 17.26 57.3383 18.9733 57.3383 21C57.3383 23.04 56.6516 24.76 55.2783 26.16C53.9183 27.5467 52.2116 28.24 50.1583 28.24C48.8516 28.24 47.7383 28.0467 46.8183 27.66C45.8983 27.2733 45.0649 26.68 44.3183 25.88L46.2183 23.82C46.8316 24.38 47.4316 24.8 48.0183 25.08C48.6049 25.3467 49.2849 25.48 50.0583 25.48C51.0449 25.48 51.8916 25.18 52.5983 24.58C53.3183 23.9667 53.7983 23.18 54.0383 22.22H48.2983ZM60.0863 28V14H63.4062L67.0863 19.92L70.7663 14H74.0863V28H71.0263V18.86L67.0863 24.84H67.0063L63.1063 18.92V28H60.0863Z" fill="white"/>
</svg>
