<svg width="112" height="45" viewBox="0 0 112 45" fill="none" xmlns="http://www.w3.org/2000/svg">
<rect width="112" height="45" fill="#0170BA"/>
<path d="M37.74 28.24C35.6867 28.24 33.9733 27.5467 32.6 26.16C31.24 24.76 30.56 23.04 30.56 21C30.56 18.9733 31.2467 17.26 32.62 15.86C33.9933 14.46 35.74 13.76 37.86 13.76C39.0733 13.76 40.0933 13.96 40.92 14.36C41.7467 14.7467 42.5333 15.3067 43.28 16.04L41.44 18.16C40.84 17.6133 40.2733 17.22 39.74 16.98C39.22 16.7267 38.5867 16.6 37.84 16.6C36.6667 16.6 35.6933 17.0267 34.92 17.88C34.16 18.72 33.78 19.76 33.78 21C33.78 22.2267 34.16 23.2667 34.92 24.12C35.6933 24.9733 36.6667 25.4 37.84 25.4C38.5867 25.4 39.2333 25.2667 39.78 25C40.3267 24.7333 40.9067 24.32 41.52 23.76L43.48 25.86C42.72 26.6733 41.8933 27.2733 41 27.66C40.12 28.0467 39.0333 28.24 37.74 28.24ZM50.9256 28.2C48.6323 28.2 46.6523 27.4533 44.9856 25.96L46.8056 23.78C48.179 24.9133 49.5723 25.48 50.9856 25.48C51.6123 25.48 52.1056 25.36 52.4656 25.12C52.8256 24.88 53.0056 24.5467 53.0056 24.12C53.0056 23.72 52.819 23.4 52.4456 23.16C52.0723 22.9067 51.319 22.6333 50.1856 22.34C49.3856 22.14 48.739 21.9467 48.2456 21.76C47.7523 21.56 47.279 21.3 46.8256 20.98C46.3856 20.66 46.059 20.26 45.8456 19.78C45.6456 19.2867 45.5456 18.7 45.5456 18.02C45.5456 16.7533 45.999 15.7333 46.9056 14.96C47.8256 14.1867 49.0056 13.8 50.4456 13.8C52.4323 13.8 54.1656 14.3933 55.6456 15.58L54.0456 17.9C52.7256 16.98 51.5123 16.52 50.4056 16.52C49.8323 16.52 49.3856 16.64 49.0656 16.88C48.759 17.1067 48.6056 17.4067 48.6056 17.78C48.6056 18.2333 48.799 18.5733 49.1856 18.8C49.5723 19.0267 50.3856 19.3 51.6256 19.62C53.1456 20.02 54.2656 20.5333 54.9856 21.16C55.7056 21.7867 56.0656 22.6867 56.0656 23.86C56.0656 25.22 55.5923 26.2867 54.6456 27.06C53.7123 27.82 52.4723 28.2 50.9256 28.2ZM63.5233 28.2C61.2299 28.2 59.2499 27.4533 57.5833 25.96L59.4033 23.78C60.7766 24.9133 62.1699 25.48 63.5833 25.48C64.2099 25.48 64.7033 25.36 65.0633 25.12C65.4233 24.88 65.6033 24.5467 65.6033 24.12C65.6033 23.72 65.4166 23.4 65.0433 23.16C64.6699 22.9067 63.9166 22.6333 62.7833 22.34C61.9833 22.14 61.3366 21.9467 60.8433 21.76C60.3499 21.56 59.8766 21.3 59.4233 20.98C58.9833 20.66 58.6566 20.26 58.4433 19.78C58.2433 19.2867 58.1433 18.7 58.1433 18.02C58.1433 16.7533 58.5966 15.7333 59.5033 14.96C60.4233 14.1867 61.6033 13.8 63.0433 13.8C65.0299 13.8 66.7633 14.3933 68.2433 15.58L66.6433 17.9C65.3233 16.98 64.1099 16.52 63.0033 16.52C62.4299 16.52 61.9833 16.64 61.6633 16.88C61.3566 17.1067 61.2033 17.4067 61.2033 17.78C61.2033 18.2333 61.3966 18.5733 61.7833 18.8C62.1699 19.0267 62.9833 19.3 64.2233 19.62C65.7433 20.02 66.8633 20.5333 67.5833 21.16C68.3033 21.7867 68.6633 22.6867 68.6633 23.86C68.6633 25.22 68.1899 26.2867 67.2433 27.06C66.3099 27.82 65.0699 28.2 63.5233 28.2ZM75.8763 28.24C73.5963 28.24 71.7763 27.4333 70.4163 25.82L72.5363 23.8C73.5363 24.92 74.6629 25.48 75.9163 25.48C76.5029 25.48 76.9763 25.3267 77.3363 25.02C77.7096 24.7 77.8963 24.2733 77.8963 23.74C77.8963 23.1667 77.6563 22.7267 77.1763 22.42C76.6963 22.1133 76.0229 21.96 75.1563 21.96H73.8763L73.3963 20L76.7363 16.64H71.2363V14H80.6963V16.32L77.1563 19.7C79.6629 20.1267 80.9163 21.4467 80.9163 23.66C80.9163 25.0067 80.4563 26.1067 79.5363 26.96C78.6296 27.8133 77.4096 28.24 75.8763 28.24Z" fill="white"/>
</svg>
