<svg width="123" height="45" viewBox="0 0 123 45" fill="none" xmlns="http://www.w3.org/2000/svg">
<rect width="123" height="45" fill="#1E1E1E"/>
<path d="M31.18 28V14H41.84V16.8H34.26V19.78H40.94V22.58H34.26V28H31.18ZM44.045 16.1V13.4H47.245V16.1H44.045ZM44.125 28V17.28H47.165V28H44.125ZM54.8202 31.24C53.0735 31.24 51.4935 30.8667 50.0802 30.12L51.1202 27.84C52.2802 28.4933 53.4868 28.82 54.7402 28.82C56.7802 28.82 57.8002 27.8467 57.8002 25.9V25.38C57.3202 25.9667 56.8068 26.4067 56.2602 26.7C55.7268 26.98 55.0735 27.12 54.3002 27.12C52.9802 27.12 51.8535 26.6667 50.9202 25.76C50.0002 24.8533 49.5402 23.6267 49.5402 22.08C49.5402 20.5467 50.0068 19.3333 50.9402 18.44C51.8735 17.5333 52.9935 17.08 54.3002 17.08C55.6335 17.08 56.7868 17.6133 57.7602 18.68V17.28H60.8002V25.58C60.8002 27.4867 60.3468 28.8933 59.4402 29.8C58.4802 30.76 56.9402 31.24 54.8202 31.24ZM53.3202 23.92C53.8135 24.3733 54.4335 24.6 55.1802 24.6C55.9268 24.6 56.5468 24.3667 57.0402 23.9C57.5468 23.4333 57.8002 22.8267 57.8002 22.08C57.8002 21.36 57.5468 20.7667 57.0402 20.3C56.5468 19.8333 55.9268 19.6 55.1802 19.6C54.4335 19.6 53.8135 19.8333 53.3202 20.3C52.8268 20.7667 52.5802 21.3733 52.5802 22.12C52.5802 22.8533 52.8268 23.4533 53.3202 23.92ZM63.5163 28V17.28H66.5563V18.8C67.4496 17.6533 68.5029 17.08 69.7163 17.08C71.1429 17.08 72.1496 17.6467 72.7363 18.78C73.7096 17.6467 74.8829 17.08 76.2563 17.08C77.4029 17.08 78.2896 17.42 78.9163 18.1C79.5563 18.7667 79.8763 19.74 79.8763 21.02V28H76.8363V22.02C76.8363 20.5667 76.2429 19.84 75.0563 19.84C74.4829 19.84 74.0296 20.0267 73.6963 20.4C73.3763 20.7733 73.2163 21.3133 73.2163 22.02V28H70.1763V22.02C70.1763 20.5667 69.5829 19.84 68.3963 19.84C67.8229 19.84 67.3696 20.0267 67.0363 20.4C66.7163 20.7733 66.5563 21.3133 66.5563 22.02V28H63.5163ZM85.5602 28.2C84.5068 28.2 83.6268 27.9067 82.9202 27.32C82.2268 26.7333 81.8802 25.92 81.8802 24.88C81.8802 23.7467 82.2668 22.8933 83.0402 22.32C83.8268 21.7467 84.8802 21.46 86.2002 21.46C87.0935 21.46 87.9668 21.6067 88.8202 21.9V21.72C88.8202 20.4133 88.0535 19.76 86.5202 19.76C85.6002 19.76 84.6135 19.9533 83.5602 20.34L82.8002 18.02C84.1068 17.4467 85.4935 17.16 86.9602 17.16C88.5735 17.16 89.7802 17.56 90.5802 18.36C91.3535 19.1333 91.7402 20.2733 91.7402 21.78V28H88.8002V26.84C87.9868 27.7467 86.9068 28.2 85.5602 28.2ZM86.4802 26.1C87.1868 26.1 87.7602 25.9267 88.2002 25.58C88.6402 25.22 88.8602 24.7667 88.8602 24.22V23.68C88.2868 23.4133 87.6402 23.28 86.9202 23.28C86.2535 23.28 85.7335 23.4133 85.3602 23.68C85.0002 23.9333 84.8202 24.3067 84.8202 24.8C84.8202 25.2 84.9735 25.52 85.2802 25.76C85.5868 25.9867 85.9868 26.1 86.4802 26.1Z" fill="white"/>
</svg>
