<svg width="107" height="45" viewBox="0 0 107 45" fill="none" xmlns="http://www.w3.org/2000/svg">
<rect width="107" height="45" fill="#D14747"/>
<path d="M37.92 28.24C35.7467 28.24 33.9733 27.56 32.6 26.2C31.24 24.84 30.56 23.1067 30.56 21C30.56 18.9867 31.26 17.28 32.66 15.88C34.06 14.4667 35.8067 13.76 37.9 13.76C39.1133 13.76 40.14 13.92 40.98 14.24C41.82 14.5467 42.6267 15.0267 43.4 15.68L41.46 18.02C40.8733 17.5267 40.3067 17.1667 39.76 16.94C39.2133 16.7133 38.56 16.6 37.8 16.6C36.68 16.6 35.7267 17.0333 34.94 17.9C34.1667 18.7533 33.78 19.7867 33.78 21C33.78 22.28 34.1733 23.34 34.96 24.18C35.76 25.02 36.78 25.44 38.02 25.44C39.1667 25.44 40.1333 25.16 40.92 24.6V22.6H37.82V19.94H43.9V26.02C42.1533 27.5 40.16 28.24 37.92 28.24ZM50.1036 28.2C48.9569 28.2 48.0636 27.8467 47.4236 27.14C46.7836 26.4333 46.4636 25.46 46.4636 24.22V17.28H49.5036V23.26C49.5036 23.9667 49.6636 24.5067 49.9836 24.88C50.3036 25.2533 50.7569 25.44 51.3436 25.44C51.9303 25.44 52.3903 25.2533 52.7236 24.88C53.0703 24.5067 53.2436 23.9667 53.2436 23.26V17.28H56.2836V28H53.2436V26.48C52.3503 27.6267 51.3036 28.2 50.1036 28.2ZM59.1445 28V13.4H62.1845V28H59.1445ZM65.0397 31.2V17.28H68.0797V18.82C68.933 17.66 70.0464 17.08 71.4197 17.08C72.753 17.08 73.8997 17.58 74.8597 18.58C75.8197 19.58 76.2997 20.94 76.2997 22.66C76.2997 24.3667 75.8197 25.72 74.8597 26.72C73.913 27.7067 72.7664 28.2 71.4197 28.2C70.0864 28.2 68.973 27.6667 68.0797 26.6V31.2H65.0397ZM68.7797 24.8C69.2864 25.3467 69.9064 25.62 70.6397 25.62C71.373 25.62 71.993 25.3467 72.4997 24.8C73.0064 24.24 73.2597 23.5133 73.2597 22.62C73.2597 21.7533 73.0064 21.0467 72.4997 20.5C71.993 19.94 71.373 19.66 70.6397 19.66C69.9064 19.66 69.2864 19.94 68.7797 20.5C68.2864 21.0467 68.0397 21.7667 68.0397 22.66C68.0397 23.5267 68.2864 24.24 68.7797 24.8Z" fill="white"/>
</svg>
