<svg width="130" height="45" viewBox="0 0 130 45" fill="none" xmlns="http://www.w3.org/2000/svg">
<rect width="130" height="45" fill="#E54C25"/>
<path d="M31.18 28V14H34.26V19.54H39.94V14H43.02V28H39.94V22.38H34.26V28H31.18ZM49.6353 28V16.84H45.3753V14H56.9753V16.84H52.7153V28H49.6353ZM59.3441 28V14H62.6641L66.3441 19.92L70.0241 14H73.3441V28H70.2841V18.86L66.3441 24.84H66.2641L62.3641 18.92V28H59.3441ZM76.7073 28V14H79.7873V25.2H86.7673V28H76.7073ZM93.5102 28.24C91.4835 28.24 89.7368 27.54 88.2702 26.14L90.1302 23.92C91.2502 24.9333 92.3635 25.44 93.4702 25.44C94.2035 25.44 94.7768 25.2667 95.1902 24.92C95.6035 24.5733 95.8102 24.0867 95.8102 23.46C95.8102 22.8733 95.5835 22.4133 95.1302 22.08C94.6768 21.7333 94.0768 21.56 93.3302 21.56C92.5835 21.56 91.8035 21.7333 90.9902 22.08L89.2102 20.9L89.6102 14H98.2102V16.7H92.2502L92.0902 19.12C92.7302 18.96 93.3435 18.88 93.9302 18.88C95.3835 18.88 96.5635 19.2533 97.4702 20C98.3768 20.7467 98.8302 21.88 98.8302 23.4C98.8302 24.88 98.3435 26.06 97.3702 26.94C96.4102 27.8067 95.1235 28.24 93.5102 28.24Z" fill="white"/>
</svg>
