<svg width="166" height="45" viewBox="0 0 166 45" fill="none" xmlns="http://www.w3.org/2000/svg">
<rect width="166" height="45" fill="#F8DE24"/>
<path d="M34.36 28.2C32.48 28.2 30.9533 27.5 29.78 26.1L31.72 23.94C32.5733 24.8733 33.4267 25.34 34.28 25.34C35.5333 25.34 36.16 24.5667 36.16 23.02V14H39.32V23.16C39.32 24.7733 38.88 26.02 38 26.9C37.1333 27.7667 35.92 28.2 34.36 28.2ZM45.1891 28.2C44.1357 28.2 43.2557 27.9067 42.5491 27.32C41.8557 26.7333 41.5091 25.92 41.5091 24.88C41.5091 23.7467 41.8957 22.8933 42.6691 22.32C43.4557 21.7467 44.5091 21.46 45.8291 21.46C46.7224 21.46 47.5957 21.6067 48.4491 21.9V21.72C48.4491 20.4133 47.6824 19.76 46.1491 19.76C45.2291 19.76 44.2424 19.9533 43.1891 20.34L42.4291 18.02C43.7357 17.4467 45.1224 17.16 46.5891 17.16C48.2024 17.16 49.4091 17.56 50.2091 18.36C50.9824 19.1333 51.3691 20.2733 51.3691 21.78V28H48.4291V26.84C47.6157 27.7467 46.5357 28.2 45.1891 28.2ZM46.1091 26.1C46.8157 26.1 47.3891 25.9267 47.8291 25.58C48.2691 25.22 48.4891 24.7667 48.4891 24.22V23.68C47.9157 23.4133 47.2691 23.28 46.5491 23.28C45.8824 23.28 45.3624 23.4133 44.9891 23.68C44.6291 23.9333 44.4491 24.3067 44.4491 24.8C44.4491 25.2 44.6024 25.52 44.9091 25.76C45.2157 25.9867 45.6157 26.1 46.1091 26.1ZM56.8544 28.08L52.6344 17.28H55.8544L58.2544 24.46L60.6744 17.28H63.8344L59.6144 28.08H56.8544ZM68.1188 28.2C67.0654 28.2 66.1854 27.9067 65.4788 27.32C64.7854 26.7333 64.4388 25.92 64.4388 24.88C64.4388 23.7467 64.8254 22.8933 65.5988 22.32C66.3854 21.7467 67.4388 21.46 68.7588 21.46C69.6521 21.46 70.5254 21.6067 71.3788 21.9V21.72C71.3788 20.4133 70.6121 19.76 69.0788 19.76C68.1588 19.76 67.1721 19.9533 66.1188 20.34L65.3588 18.02C66.6654 17.4467 68.0521 17.16 69.5188 17.16C71.1321 17.16 72.3388 17.56 73.1388 18.36C73.9121 19.1333 74.2988 20.2733 74.2988 21.78V28H71.3588V26.84C70.5454 27.7467 69.4654 28.2 68.1188 28.2ZM69.0388 26.1C69.7454 26.1 70.3188 25.9267 70.7588 25.58C71.1988 25.22 71.4188 24.7667 71.4188 24.22V23.68C70.8454 23.4133 70.1988 23.28 69.4788 23.28C68.8121 23.28 68.2921 23.4133 67.9188 23.68C67.5588 23.9333 67.3788 24.3067 67.3788 24.8C67.3788 25.2 67.5321 25.52 67.8388 25.76C68.1454 25.9867 68.5454 26.1 69.0388 26.1ZM82.2147 28.2C79.9214 28.2 77.9414 27.4533 76.2747 25.96L78.0947 23.78C79.468 24.9133 80.8614 25.48 82.2747 25.48C82.9014 25.48 83.3947 25.36 83.7547 25.12C84.1147 24.88 84.2947 24.5467 84.2947 24.12C84.2947 23.72 84.108 23.4 83.7347 23.16C83.3614 22.9067 82.608 22.6333 81.4747 22.34C80.6747 22.14 80.028 21.9467 79.5347 21.76C79.0414 21.56 78.568 21.3 78.1147 20.98C77.6747 20.66 77.348 20.26 77.1347 19.78C76.9347 19.2867 76.8347 18.7 76.8347 18.02C76.8347 16.7533 77.288 15.7333 78.1947 14.96C79.1147 14.1867 80.2947 13.8 81.7347 13.8C83.7214 13.8 85.4547 14.3933 86.9347 15.58L85.3347 17.9C84.0147 16.98 82.8014 16.52 81.6947 16.52C81.1214 16.52 80.6747 16.64 80.3547 16.88C80.048 17.1067 79.8947 17.4067 79.8947 17.78C79.8947 18.2333 80.088 18.5733 80.4747 18.8C80.8614 19.0267 81.6747 19.3 82.9147 19.62C84.4347 20.02 85.5547 20.5333 86.2747 21.16C86.9947 21.7867 87.3547 22.6867 87.3547 23.86C87.3547 25.22 86.8814 26.2867 85.9347 27.06C85.0014 27.82 83.7614 28.2 82.2147 28.2ZM94.7677 28.24C93.1677 28.24 91.8343 27.7 90.7677 26.62C89.7143 25.54 89.1877 24.22 89.1877 22.66C89.1877 21.1133 89.721 19.8 90.7877 18.72C91.8543 17.6267 93.1943 17.08 94.8077 17.08C96.5277 17.08 97.9477 17.7067 99.0677 18.96L97.2877 20.76C96.541 20.0533 95.7077 19.7 94.7877 19.7C94.041 19.7 93.421 19.9867 92.9277 20.56C92.4343 21.1333 92.1877 21.8333 92.1877 22.66C92.1877 23.5 92.4343 24.2067 92.9277 24.78C93.4343 25.34 94.0943 25.62 94.9077 25.62C95.7477 25.62 96.5677 25.24 97.3677 24.48L99.1477 26.28C98.561 26.92 97.9343 27.4067 97.2677 27.74C96.601 28.0733 95.7677 28.24 94.7677 28.24ZM101.133 28V17.28H104.173V19.44C104.867 17.8 106.007 17.0133 107.593 17.08V20.26H107.433C106.393 20.26 105.587 20.58 105.013 21.22C104.453 21.8467 104.173 22.7867 104.173 24.04V28H101.133ZM109.553 16.1V13.4H112.753V16.1H109.553ZM109.633 28V17.28H112.673V28H109.633ZM115.528 31.2V17.28H118.568V18.82C119.421 17.66 120.535 17.08 121.908 17.08C123.241 17.08 124.388 17.58 125.348 18.58C126.308 19.58 126.788 20.94 126.788 22.66C126.788 24.3667 126.308 25.72 125.348 26.72C124.401 27.7067 123.255 28.2 121.908 28.2C120.575 28.2 119.461 27.6667 118.568 26.6V31.2H115.528ZM119.268 24.8C119.775 25.3467 120.395 25.62 121.128 25.62C121.861 25.62 122.481 25.3467 122.988 24.8C123.495 24.24 123.748 23.5133 123.748 22.62C123.748 21.7533 123.495 21.0467 122.988 20.5C122.481 19.94 121.861 19.66 121.128 19.66C120.395 19.66 119.775 19.94 119.268 20.5C118.775 21.0467 118.528 21.7667 118.528 22.66C118.528 23.5267 118.775 24.24 119.268 24.8ZM132.644 28.18C131.644 28.18 130.871 27.94 130.324 27.46C129.791 26.9667 129.524 26.1333 129.524 24.96V19.88H128.244V17.28H129.524V14.54H132.564V17.28H135.084V19.88H132.564V24.46C132.564 25.1533 132.891 25.5 133.544 25.5C134.077 25.5 134.577 25.3733 135.044 25.12V27.56C134.351 27.9733 133.551 28.18 132.644 28.18Z" fill="black"/>
</svg>
