<svg width="101" height="45" viewBox="0 0 101 45" fill="none" xmlns="http://www.w3.org/2000/svg">
<rect width="101" height="45" fill="#8A93BB"/>
<path d="M31.18 28V14H36.9C38.5533 14 39.86 14.4467 40.82 15.34C41.78 16.2333 42.26 17.4133 42.26 18.88C42.26 20.44 41.7267 21.6533 40.66 22.52C39.5933 23.3733 38.24 23.8 36.6 23.8H34.26V28H31.18ZM34.26 21.06H36.7C37.46 21.06 38.0533 20.86 38.48 20.46C38.92 20.06 39.14 19.54 39.14 18.9C39.14 18.22 38.92 17.7 38.48 17.34C38.04 16.9667 37.4267 16.78 36.64 16.78H34.26V21.06ZM44.5394 28V14H47.6194V19.54H53.2994V14H56.3794V28H53.2994V22.38H47.6194V28H44.5394ZM59.7347 28V14H65.4547C67.108 14 68.4147 14.4467 69.3747 15.34C70.3347 16.2333 70.8147 17.4133 70.8147 18.88C70.8147 20.44 70.2814 21.6533 69.2147 22.52C68.148 23.3733 66.7947 23.8 65.1547 23.8H62.8147V28H59.7347ZM62.8147 21.06H65.2547C66.0147 21.06 66.608 20.86 67.0347 20.46C67.4747 20.06 67.6947 19.54 67.6947 18.9C67.6947 18.22 67.4747 17.7 67.0347 17.34C66.5947 16.9667 65.9814 16.78 65.1947 16.78H62.8147V21.06Z" fill="black"/>
</svg>
