<svg width="118" height="45" viewBox="0 0 118 45" fill="none" xmlns="http://www.w3.org/2000/svg">
<rect width="118" height="45" fill="#1D253A"/>
<path d="M31.18 28V14H37.58C39.3533 14 40.7133 14.4733 41.66 15.42C42.46 16.22 42.86 17.3 42.86 18.66C42.86 20.8067 41.86 22.2533 39.86 23L43.28 28H39.68L36.64 23.52H34.26V28H31.18ZM34.26 20.8H37.38C38.1267 20.8 38.7067 20.62 39.12 20.26C39.5333 19.8867 39.74 19.3933 39.74 18.78C39.74 18.1267 39.5267 17.6333 39.1 17.3C38.6733 16.9533 38.08 16.78 37.32 16.78H34.26V20.8ZM50.1978 28.24C48.5711 28.24 47.2311 27.7267 46.1778 26.7C45.1245 25.66 44.5978 24.3133 44.5978 22.66C44.5978 21.1 45.0978 19.78 46.0978 18.7C47.0978 17.62 48.3645 17.08 49.8978 17.08C51.5911 17.08 52.8845 17.64 53.7778 18.76C54.6711 19.88 55.1178 21.26 55.1178 22.9C55.1178 23.06 55.1045 23.3267 55.0778 23.7H47.6178C47.7645 24.38 48.0645 24.9 48.5178 25.26C48.9711 25.62 49.5445 25.8 50.2378 25.8C51.1845 25.8 52.0511 25.4333 52.8378 24.7L54.5778 26.24C53.4978 27.5733 52.0378 28.24 50.1978 28.24ZM47.5778 21.8H52.1578C52.0645 21.1067 51.8178 20.5533 51.4178 20.14C51.0311 19.7267 50.5245 19.52 49.8978 19.52C49.2845 19.52 48.7711 19.7267 48.3578 20.14C47.9578 20.54 47.6978 21.0933 47.5778 21.8ZM60.4234 28.2C59.3701 28.2 58.4901 27.9067 57.7834 27.32C57.0901 26.7333 56.7434 25.92 56.7434 24.88C56.7434 23.7467 57.1301 22.8933 57.9034 22.32C58.6901 21.7467 59.7434 21.46 61.0634 21.46C61.9568 21.46 62.8301 21.6067 63.6834 21.9V21.72C63.6834 20.4133 62.9168 19.76 61.3834 19.76C60.4634 19.76 59.4768 19.9533 58.4234 20.34L57.6634 18.02C58.9701 17.4467 60.3568 17.16 61.8234 17.16C63.4368 17.16 64.6434 17.56 65.4434 18.36C66.2168 19.1333 66.6034 20.2733 66.6034 21.78V28H63.6634V26.84C62.8501 27.7467 61.7701 28.2 60.4234 28.2ZM61.3434 26.1C62.0501 26.1 62.6234 25.9267 63.0634 25.58C63.5034 25.22 63.7234 24.7667 63.7234 24.22V23.68C63.1501 23.4133 62.5034 23.28 61.7834 23.28C61.1168 23.28 60.5968 23.4133 60.2234 23.68C59.8634 23.9333 59.6834 24.3067 59.6834 24.8C59.6834 25.2 59.8368 25.52 60.1434 25.76C60.4501 25.9867 60.8501 26.1 61.3434 26.1ZM74.2794 28.24C72.6794 28.24 71.346 27.7 70.2794 26.62C69.226 25.54 68.6994 24.22 68.6994 22.66C68.6994 21.1133 69.2327 19.8 70.2994 18.72C71.366 17.6267 72.706 17.08 74.3194 17.08C76.0394 17.08 77.4594 17.7067 78.5794 18.96L76.7994 20.76C76.0527 20.0533 75.2194 19.7 74.2994 19.7C73.5527 19.7 72.9327 19.9867 72.4394 20.56C71.946 21.1333 71.6994 21.8333 71.6994 22.66C71.6994 23.5 71.946 24.2067 72.4394 24.78C72.946 25.34 73.606 25.62 74.4194 25.62C75.2594 25.62 76.0794 25.24 76.8794 24.48L78.6594 26.28C78.0727 26.92 77.446 27.4067 76.7794 27.74C76.1127 28.0733 75.2794 28.24 74.2794 28.24ZM84.2652 28.18C83.2652 28.18 82.4918 27.94 81.9452 27.46C81.4118 26.9667 81.1452 26.1333 81.1452 24.96V19.88H79.8652V17.28H81.1452V14.54H84.1852V17.28H86.7052V19.88H84.1852V24.46C84.1852 25.1533 84.5118 25.5 85.1652 25.5C85.6985 25.5 86.1985 25.3733 86.6652 25.12V27.56C85.9718 27.9733 85.1718 28.18 84.2652 28.18Z" fill="#65D8FD"/>
</svg>
