<svg width="169" height="45" viewBox="0 0 169 45" fill="none" xmlns="http://www.w3.org/2000/svg">
<rect width="169" height="45" fill="#21759B"/>
<path d="M34.88 28.1L30.1 14H33.4L36.3 23.48L39.44 13.96H42.08L45.22 23.48L48.12 14H51.34L46.56 28.1H43.88L40.72 18.94L37.56 28.1H34.88ZM61.3928 26.62C60.2861 27.7 58.9061 28.24 57.2528 28.24C55.5995 28.24 54.2195 27.7067 53.1128 26.64C52.0195 25.56 51.4728 24.2333 51.4728 22.66C51.4728 21.1 52.0261 19.78 53.1328 18.7C54.2528 17.62 55.6395 17.08 57.2928 17.08C58.9461 17.08 60.3195 17.62 61.4128 18.7C62.5195 19.7667 63.0728 21.0867 63.0728 22.66C63.0728 24.22 62.5128 25.54 61.3928 26.62ZM57.2928 25.62C58.1328 25.62 58.8061 25.34 59.3128 24.78C59.8195 24.2067 60.0728 23.5 60.0728 22.66C60.0728 21.8467 59.8061 21.1533 59.2728 20.58C58.7528 19.9933 58.0795 19.7 57.2528 19.7C56.4128 19.7 55.7395 19.9867 55.2328 20.56C54.7261 21.12 54.4728 21.82 54.4728 22.66C54.4728 23.4733 54.7328 24.1733 55.2528 24.76C55.7861 25.3333 56.4661 25.62 57.2928 25.62ZM65.2741 28V17.28H68.3141V19.44C69.0074 17.8 70.1474 17.0133 71.7341 17.08V20.26H71.5741C70.5341 20.26 69.7274 20.58 69.1541 21.22C68.5941 21.8467 68.3141 22.7867 68.3141 24.04V28H65.2741ZM77.8381 28.2C76.5048 28.2 75.3581 27.7 74.3981 26.7C73.4381 25.7 72.9581 24.34 72.9581 22.62C72.9581 20.9133 73.4315 19.5667 74.3781 18.58C75.3381 17.58 76.4915 17.08 77.8381 17.08C79.1715 17.08 80.2848 17.6133 81.1781 18.68V13.4H84.2181V28H81.1781V26.46C80.3248 27.62 79.2115 28.2 77.8381 28.2ZM76.7581 24.8C77.2648 25.3467 77.8848 25.62 78.6181 25.62C79.3515 25.62 79.9648 25.3467 80.4581 24.8C80.9648 24.24 81.2181 23.5133 81.2181 22.62C81.2181 21.7533 80.9648 21.0467 80.4581 20.5C79.9648 19.94 79.3515 19.66 78.6181 19.66C77.8848 19.66 77.2648 19.94 76.7581 20.5C76.2515 21.0467 75.9981 21.7667 75.9981 22.66C75.9981 23.5267 76.2515 24.24 76.7581 24.8ZM87.2542 28V14H92.9742C94.6276 14 95.9342 14.4467 96.8942 15.34C97.8542 16.2333 98.3342 17.4133 98.3342 18.88C98.3342 20.44 97.8009 21.6533 96.7342 22.52C95.6676 23.3733 94.3142 23.8 92.6742 23.8H90.3342V28H87.2542ZM90.3342 21.06H92.7742C93.5342 21.06 94.1276 20.86 94.5542 20.46C94.9942 20.06 95.2142 19.54 95.2142 18.9C95.2142 18.22 94.9942 17.7 94.5542 17.34C94.1142 16.9667 93.5009 16.78 92.7142 16.78H90.3342V21.06ZM100.294 28V17.28H103.334V19.44C104.027 17.8 105.167 17.0133 106.754 17.08V20.26H106.594C105.554 20.26 104.747 20.58 104.174 21.22C103.614 21.8467 103.334 22.7867 103.334 24.04V28H100.294ZM113.44 28.24C111.813 28.24 110.473 27.7267 109.42 26.7C108.367 25.66 107.84 24.3133 107.84 22.66C107.84 21.1 108.34 19.78 109.34 18.7C110.34 17.62 111.607 17.08 113.14 17.08C114.833 17.08 116.127 17.64 117.02 18.76C117.913 19.88 118.36 21.26 118.36 22.9C118.36 23.06 118.347 23.3267 118.32 23.7H110.86C111.007 24.38 111.307 24.9 111.76 25.26C112.213 25.62 112.787 25.8 113.48 25.8C114.427 25.8 115.293 25.4333 116.08 24.7L117.82 26.24C116.74 27.5733 115.28 28.24 113.44 28.24ZM110.82 21.8H115.4C115.307 21.1067 115.06 20.5533 114.66 20.14C114.273 19.7267 113.767 19.52 113.14 19.52C112.527 19.52 112.013 19.7267 111.6 20.14C111.2 20.54 110.94 21.0933 110.82 21.8ZM124.386 28.2C122.692 28.2 121.159 27.66 119.786 26.58L121.086 24.58C122.259 25.4333 123.386 25.86 124.466 25.86C125.319 25.86 125.746 25.58 125.746 25.02C125.746 24.9533 125.732 24.8867 125.706 24.82C125.692 24.7533 125.659 24.6933 125.606 24.64C125.552 24.5867 125.492 24.54 125.426 24.5C125.372 24.4467 125.292 24.4 125.186 24.36C125.092 24.3067 125.006 24.2667 124.926 24.24C124.859 24.2 124.759 24.16 124.626 24.12C124.492 24.0667 124.379 24.0267 124.286 24C124.192 23.9733 124.066 23.94 123.906 23.9C123.746 23.8467 123.619 23.8067 123.526 23.78C123.072 23.6467 122.686 23.5133 122.366 23.38C122.059 23.2333 121.732 23.04 121.386 22.8C121.039 22.5467 120.772 22.2333 120.586 21.86C120.412 21.4733 120.326 21.0267 120.326 20.52C120.326 19.4667 120.699 18.64 121.446 18.04C122.192 17.4267 123.126 17.12 124.246 17.12C125.686 17.12 127.019 17.5333 128.246 18.36L127.086 20.46C125.952 19.7933 124.986 19.46 124.186 19.46C123.439 19.46 123.066 19.72 123.066 20.24C123.066 20.6 123.679 20.9867 124.906 21.4C125.052 21.4533 125.166 21.4933 125.246 21.52C125.606 21.64 125.912 21.7533 126.166 21.86C126.419 21.9667 126.706 22.1133 127.026 22.3C127.346 22.4867 127.599 22.6867 127.786 22.9C127.986 23.1 128.152 23.36 128.286 23.68C128.419 24 128.486 24.3533 128.486 24.74C128.486 25.8867 128.106 26.7533 127.346 27.34C126.599 27.9133 125.612 28.2 124.386 28.2ZM134.229 28.2C132.536 28.2 131.003 27.66 129.629 26.58L130.929 24.58C132.103 25.4333 133.229 25.86 134.309 25.86C135.163 25.86 135.589 25.58 135.589 25.02C135.589 24.9533 135.576 24.8867 135.549 24.82C135.536 24.7533 135.503 24.6933 135.449 24.64C135.396 24.5867 135.336 24.54 135.269 24.5C135.216 24.4467 135.136 24.4 135.029 24.36C134.936 24.3067 134.849 24.2667 134.769 24.24C134.703 24.2 134.603 24.16 134.469 24.12C134.336 24.0667 134.223 24.0267 134.129 24C134.036 23.9733 133.909 23.94 133.749 23.9C133.589 23.8467 133.463 23.8067 133.369 23.78C132.916 23.6467 132.529 23.5133 132.209 23.38C131.903 23.2333 131.576 23.04 131.229 22.8C130.883 22.5467 130.616 22.2333 130.429 21.86C130.256 21.4733 130.169 21.0267 130.169 20.52C130.169 19.4667 130.543 18.64 131.289 18.04C132.036 17.4267 132.969 17.12 134.089 17.12C135.529 17.12 136.863 17.5333 138.089 18.36L136.929 20.46C135.796 19.7933 134.829 19.46 134.029 19.46C133.283 19.46 132.909 19.72 132.909 20.24C132.909 20.6 133.523 20.9867 134.749 21.4C134.896 21.4533 135.009 21.4933 135.089 21.52C135.449 21.64 135.756 21.7533 136.009 21.86C136.263 21.9667 136.549 22.1133 136.869 22.3C137.189 22.4867 137.443 22.6867 137.629 22.9C137.829 23.1 137.996 23.36 138.129 23.68C138.263 24 138.329 24.3533 138.329 24.74C138.329 25.8867 137.949 26.7533 137.189 27.34C136.443 27.9133 135.456 28.2 134.229 28.2Z" fill="white"/>
</svg>
